<?xml version="1.0" encoding="utf-8"?>
<!-- Generator: Adobe Illustrator 24.0.0, SVG Export Plug-In . SVG Version: 6.00 Build 0)  -->
<svg version="1.1" id="Layer_1" xmlns="http://www.w3.org/2000/svg" xmlns:xlink="http://www.w3.org/1999/xlink" x="0px" y="0px"
	 viewBox="0 0 1920 1080" style="enable-background:new 0 0 1920 1080;" xml:space="preserve">
<style type="text/css">
	.st0{fill:#EEC0B4;}
	.st1{clip-path:url(#SVGID_2_);}
	.st2{enable-background:new    ;}
	.st3{fill:#969F9D;}
	.st4{fill:#678480;}
	.st5{fill:#FFFFFF;}
</style>
<rect id="Rectangle_56" y="0" class="st0" width="582.54" height="1080"/>
<g>
	<defs>
		<rect id="SVGID_1_" x="642" width="1278" height="1080"/>
	</defs>
	<clipPath id="SVGID_2_">
		<use xlink:href="#SVGID_1_"  style="overflow:visible;"/>
	</clipPath>
	<g transform="translate(-642.5)" class="st1">
		<rect x="1284.5" y="0" class="st0" width="1" height="1080"/>
	</g>
	<g transform="translate(-490.5)" class="st1">
		<rect x="1284.5" y="0" class="st0" width="1" height="1080"/>
	</g>
	<g transform="translate(-338.5)" class="st1">
		<rect x="1284.5" y="0" class="st0" width="1" height="1080"/>
	</g>
	<g transform="translate(-186.5)" class="st1">
		<rect x="1284.5" y="0" class="st0" width="1" height="1080"/>
	</g>
	<g transform="translate(-34.5)" class="st1">
		<rect x="1284.5" y="0" class="st0" width="1" height="1080"/>
	</g>
	<g transform="translate(117.5)" class="st1">
		<rect x="1284.5" y="0" class="st0" width="1" height="1080"/>
	</g>
	<g transform="translate(269.5)" class="st1">
		<rect x="1284.5" y="0" class="st0" width="1" height="1080"/>
	</g>
	<g transform="translate(573.5)" class="st1">
		<rect x="1284.5" y="0" class="st0" width="1" height="1080"/>
	</g>
	<g transform="translate(421.5)" class="st1">
		<rect x="1284.5" y="0" class="st0" width="1" height="1080"/>
	</g>
</g>
<rect x="582.04" y="450.49" class="st0" width="1336.67" height="1"/>
<rect x="582.04" y="249.49" class="st0" width="1336.67" height="1"/>
<rect x="582.04" y="507.49" class="st0" width="1336.67" height="1"/>
<rect x="582.04" y="698.49" class="st0" width="1336.67" height="1"/>
<g class="st2">
	<path class="st3" d="M746.73,539.6c-8.53-12.51-20.94-18.77-37.26-18.77c-5.08,0-10.06,0.68-14.96,2.04
		c-4.9,1.36-9.29,3.45-13.19,6.26c-3.9,2.81-7.03,6.44-9.38,10.88c-2.36,4.45-3.54,9.66-3.54,15.64c0,8.7,2.45,15.46,7.34,20.26
		c4.9,4.81,10.97,8.75,18.22,11.83c7.25,3.09,15.19,5.85,23.8,8.3c8.61,2.45,16.54,5.71,23.8,9.79c7.25,4.08,13.33,9.48,18.22,16.18
		c4.9,6.71,7.34,15.87,7.34,27.47c0,8.7-1.86,16.55-5.58,23.53c-3.72,6.98-8.61,12.83-14.69,17.54c-6.08,4.72-12.88,8.34-20.4,10.88
		c-7.53,2.54-15.1,3.81-22.71,3.81c-11.79,0-22.98-2.22-33.59-6.66c-10.61-4.44-19.63-11.74-27.06-21.9l17.95-12.78
		c4.16,7.07,9.94,12.74,17.35,17c7.41,4.26,16.18,6.39,26.3,6.39c4.88,0,9.76-0.77,14.64-2.31c4.88-1.54,9.26-3.81,13.15-6.8
		c3.88-2.99,7.09-6.66,9.63-11.02c2.53-4.35,3.8-9.34,3.8-14.96c0-6.71-1.41-12.28-4.22-16.73c-2.81-4.44-6.53-8.16-11.15-11.15
		c-4.62-2.99-9.89-5.48-15.78-7.48c-5.89-1.99-11.97-3.99-18.22-5.98c-6.26-1.99-12.33-4.26-18.22-6.8
		c-5.9-2.54-11.15-5.75-15.78-9.66c-4.62-3.9-8.34-8.79-11.15-14.69c-2.81-5.89-4.22-13.28-4.22-22.17c0-9.25,1.77-17.31,5.3-24.21
		c3.54-6.89,8.25-12.6,14.14-17.14c5.89-4.53,12.55-7.89,19.99-10.06c7.43-2.18,15.05-3.26,22.85-3.26
		c10.88,0,20.76,1.73,29.65,5.17c8.88,3.45,17.14,9.52,24.75,18.22L746.73,539.6z"/>
	<path class="st3" d="M803.58,700.36h-22.85l83.78-192.58h19.04l83.78,192.58h-22.85l-21.22-50.59H824.8L803.58,700.36z
		 M832.14,631.81h83.5l-41.62-101.18L832.14,631.81z"/>
	<path class="st3" d="M1053.27,584.76l53.86-76.98h24.48l-65.28,91.39l70.72,101.18h-25.84l-58.75-87.31l-59.02,87.31h-24.48
		l70.45-101.18l-65.01-91.39h26.38L1053.27,584.76z"/>
	<path class="st3" d="M1226.53,700.36h-19.58V525.73h-64.46v-17.95H1291v17.95h-64.46V700.36z"/>
	<path class="st3" d="M1508.6,604.07c0,14.69-2.54,28.2-7.62,40.53c-5.08,12.33-12.1,22.98-21.08,31.96
		c-8.98,8.98-19.58,16-31.82,21.08c-12.24,5.07-25.53,7.62-39.85,7.62c-14.33,0-27.61-2.54-39.85-7.62
		c-12.24-5.08-22.85-12.1-31.82-21.08c-8.98-8.98-16-19.63-21.08-31.96c-5.08-12.33-7.62-25.84-7.62-40.53
		c0-14.69,2.54-28.19,7.62-40.53c5.08-12.33,12.1-22.98,21.08-31.96c8.98-8.98,19.58-16,31.82-21.08
		c12.24-5.07,25.52-7.62,39.85-7.62c14.32,0,27.61,2.54,39.85,7.62c12.24,5.08,22.85,12.1,31.82,21.08
		c8.97,8.98,16,19.63,21.08,31.96C1506.05,575.88,1508.6,589.38,1508.6,604.07z M1487.38,604.07c0-11.06-1.82-21.62-5.44-31.69
		c-3.63-10.06-8.84-18.9-15.64-26.52c-6.8-7.62-15.1-13.69-24.89-18.22c-9.79-4.53-20.86-6.8-33.18-6.8
		c-12.33,0-23.39,2.27-33.18,6.8c-9.79,4.53-18.09,10.61-24.89,18.22c-6.8,7.62-12.02,16.46-15.64,26.52
		c-3.63,10.06-5.44,20.63-5.44,31.69c0,11.06,1.81,21.62,5.44,31.69c3.62,10.06,8.84,18.9,15.64,26.52
		c6.8,7.62,15.1,13.69,24.89,18.22c9.79,4.54,20.85,6.8,33.18,6.8c12.33,0,23.39-2.27,33.18-6.8c9.79-4.53,18.09-10.61,24.89-18.22
		s12.01-16.46,15.64-26.52C1485.56,625.69,1487.38,615.13,1487.38,604.07z"/>
	<path class="st3" d="M1687.03,670.98h0.54v-163.2h19.58v192.58h-24.48l-114.78-164.83h-0.54v164.83h-19.58V507.78h24.48
		L1687.03,670.98z"/>
</g>
<g id="Group_3" transform="translate(1.737 134.572)">
	<g class="st2">
		<path class="st4" d="M641.12,115.94h66.72l46.08,130.62h0.57l46.37-130.62h66.44v200.17h-44.1V162.59h-0.57l-52.59,153.52H736.4
			l-50.61-153.52h-0.57v153.52h-44.1V115.94z"/>
		<path class="st4" d="M909.7,115.94h135.99v40.71h-91.89v37.32h86.8v40.71h-86.8v40.71h96.97v40.71H909.7V115.94z"/>
		<path class="st4" d="M1267.35,301.97c-13,6.79-26.58,11.69-40.71,14.7c-14.14,3.01-28.56,4.52-43.26,4.52
			c-15.65,0-30.07-2.45-43.26-7.35c-13.2-4.9-24.6-11.92-34.21-21.06c-9.61-9.14-17.1-20.21-22.48-33.22
			c-5.37-13.01-8.06-27.52-8.06-43.54c0-16.02,2.69-30.53,8.06-43.54c5.37-13,12.86-24.08,22.48-33.22
			c9.61-9.14,21.01-16.16,34.21-21.06c13.19-4.9,27.61-7.35,43.26-7.35c16.02,0,30.77,1.94,44.25,5.8
			c13.47,3.87,25.3,10.51,35.48,19.93l-31.1,33.93c-6.03-6.22-12.82-10.93-20.36-14.14c-7.54-3.2-16.96-4.81-28.27-4.81
			c-9.43,0-17.95,1.6-25.59,4.81c-7.63,3.21-14.18,7.68-19.65,13.43c-5.47,5.75-9.66,12.58-12.58,20.5
			c-2.92,7.92-4.38,16.5-4.38,25.73c0,9.43,1.46,18.05,4.38,25.87c2.92,7.82,7.11,14.61,12.58,20.36
			c5.46,5.75,12.02,10.23,19.65,13.43c7.63,3.21,16.16,4.81,25.59,4.81c9.61,0,17.9-1.08,24.88-3.25
			c6.97-2.16,12.53-4.38,16.68-6.64v-32.51h-35.91v-40.71h78.31V301.97z"/>
		<path class="st4" d="M1371.95,115.94h36.47l87.08,200.17h-49.76l-17.25-42.41h-77.75l-16.68,42.41h-48.63L1371.95,115.94z
			 M1388.92,174.18l-24.31,62.2h48.91L1388.92,174.18z"/>
		<path class="st4" d="M1515.58,115.94h59.94l85.1,139.1h0.57v-139.1h44.1v200.17h-57.67l-87.36-142.49h-0.57v142.49h-44.1V115.94z"
			/>
	</g>
</g>
<path class="st5" d="M289.48,700.36c-9.05,0-43.83-1.13-83.98-17.03c-42.48-16.83-90.96-50.39-123.12-121.54l18.61-32.18
	c22.06,61.92,62.3,104.44,115.66,125.57c39.99,15.84,73.73,14.92,74.05,14.9l0.51-0.01c79.24,0,136.32-31.2,169.64-92.74
	c14.77-27.28,21.57-54.94,24.68-73.49c-64.01,21.54-110.97,36.96-146.13,41.22c-55.84,6.77-76.01-18.22-86.33-37.6
	c-13.81-25.95-8.91-46.26-2.37-58.73c12.45-23.73,42.59-42.69,89.58-56.33c8.85-2.57,17.44-4.7,25.31-6.45
	c-37.7-20.64-75.79-27.68-113.62-20.9C156.64,382.1,92.62,480.41,91.9,481.35c-9.01,11.68-21.99,42.17-21.99,42.17
	s-6.07-37.26-5.88-50.35c0.54-36.08,12.58-91.84,47.89-140.09c29.07-39.72,83.77-87.08,179.28-87.08
	c71.43,0,134.58,29.31,178.3,86.02c32.62,42.31,41.83,85.01,42.3,86.77l-29.29,10.03c-0.1-0.38-10.67-40.93-39.9-78.48
	c-38.26-49.15-89.2-74.07-151.41-74.07c-66.48,0-118.58,25.13-154.85,74.68c-16.3,22.28-27.08,46.63-33.64,69.05
	c31.14-32.85,80.91-73.49,143.91-84.77c56.94-10.2,113.62,5.56,168.44,46.83l30.26,22.78l-37.62,4.35
	c-42.04,4.9-114.57,23.78-130.2,53.6c-2.96,5.65-5.95,14.95,2.29,30.43c20.66,38.82,66.14,25.69,206.78-21.68l31.77-10.69
	c0,0,0.37,13.54,0.02,21.46c-0.1,2.22,0.13,50.78-30.34,108.38c-26.51,50.11-82.56,109.58-196.62,109.65
	C291.04,700.34,290.39,700.36,289.48,700.36z"/>
<g>
	<polygon class="st5" points="33.06,804.04 0,837.11 0,883.12 79.08,804.04 	"/>
	<polygon class="st5" points="150.2,804.04 0,954.24 0,1000.25 196.21,804.04 	"/>
	<polygon class="st5" points="313.34,804.04 267.33,804.04 0,1071.37 0,1080 37.39,1080 	"/>
	<polygon class="st5" points="430.48,804.04 384.46,804.04 108.5,1080 154.52,1080 	"/>
	<polygon class="st5" points="547.61,804.04 501.59,804.04 225.64,1080 271.65,1080 	"/>
	<polygon class="st5" points="582.54,886.24 582.54,840.23 342.77,1080 388.78,1080 	"/>
	<polygon class="st5" points="582.54,1003.38 582.54,957.36 459.9,1080 505.92,1080 	"/>
	<polygon class="st5" points="582.54,1074.49 577.03,1080 582.54,1080 	"/>
</g>
</svg>
