<?xml version="1.0" encoding="utf-8"?>
<!-- Generator: Adobe Illustrator 24.0.0, SVG Export Plug-In . SVG Version: 6.00 Build 0)  -->
<svg version="1.1" id="Layer_1" xmlns="http://www.w3.org/2000/svg" xmlns:xlink="http://www.w3.org/1999/xlink" x="0px" y="0px"
	 viewBox="0 0 288 288" style="enable-background:new 0 0 288 288;" xml:space="preserve">
<style type="text/css">
	.st0{fill:#F1CCC2;}
	.st1{fill:#FFFFFF;}
</style>
<circle class="st0" cx="144.08" cy="143.63" r="140.36"/>
<path class="st1" d="M143.29,243.72c-3.99,0-19.31-0.5-37-7.5c-18.71-7.41-40.07-22.2-54.24-53.54l8.2-14.18
	c9.72,27.28,27.45,46.01,50.95,55.32c17.62,6.98,32.48,6.57,32.62,6.56h0.22c34.91,0,60.06-13.75,74.74-40.86
	c6.51-12.02,9.5-24.2,10.87-32.38c-28.2,9.49-48.89,16.28-64.38,18.16c-24.6,2.98-33.49-8.03-38.03-16.57
	c-6.08-11.43-3.93-20.38-1.04-25.87c5.49-10.46,18.76-18.81,39.46-24.82c3.9-1.13,7.68-2.07,11.15-2.84
	c-16.61-9.09-33.39-12.19-50.06-9.21c-41.99,7.52-70.2,50.83-70.52,51.24c-3.97,5.15-9.69,18.58-9.69,18.58s-2.68-16.41-2.59-22.18
	c0.24-15.9,5.54-40.46,21.1-61.72c12.81-17.5,36.91-38.36,78.98-38.36c31.47,0,59.29,12.91,78.55,37.9
	c14.37,18.64,18.43,37.45,18.63,38.23l-12.9,4.42c-0.05-0.17-4.7-18.03-17.58-34.57c-16.85-21.65-39.3-32.63-66.7-32.63
	c-29.29,0-52.24,11.07-68.22,32.9c-7.18,9.81-11.93,20.54-14.82,30.42c13.72-14.47,35.64-32.38,63.4-37.35
	c25.09-4.49,50.05,2.45,74.21,20.63l13.33,10.03l-16.57,1.92c-18.52,2.16-50.47,10.48-57.36,23.61c-1.3,2.49-2.62,6.59,1.01,13.41
	c9.1,17.1,29.14,11.32,91.1-9.55l14-4.71c0,0,0.16,5.96,0.01,9.45c-0.04,0.98,0.06,22.37-13.37,47.75
	c-11.68,22.08-36.37,48.27-86.62,48.31C143.98,243.71,143.69,243.72,143.29,243.72z"/>
</svg>
