<?xml version="1.0" encoding="utf-8"?>
<!-- Generator: Adobe Illustrator 24.0.0, SVG Export Plug-In . SVG Version: 6.00 Build 0)  -->
<svg version="1.1" id="Layer_1" xmlns="http://www.w3.org/2000/svg" xmlns:xlink="http://www.w3.org/1999/xlink" x="0px" y="0px"
	 viewBox="0 0 288 288" style="enable-background:new 0 0 288 288;" xml:space="preserve">
<style type="text/css">
	.st0{fill:#FFFFFF;}
</style>
<path class="st0" d="M141.7,283.86c-5.5,0-26.65-0.69-51.06-10.36c-25.83-10.23-55.3-30.63-74.85-73.89l11.32-19.57
	c13.41,37.65,37.88,63.5,70.32,76.35c24.31,9.63,44.83,9.07,45.02,9.06l0.31-0.01c48.18,0,82.88-18.97,103.14-56.39
	c8.98-16.59,13.12-33.4,15.01-44.68c-38.92,13.09-67.47,22.47-88.84,25.06c-33.95,4.11-46.21-11.08-52.49-22.86
	c-8.4-15.78-5.42-28.13-1.44-35.71c7.57-14.43,25.89-25.95,54.46-34.25c5.38-1.56,10.6-2.86,15.38-3.92
	c-22.92-12.55-46.08-16.83-69.08-12.7c-57.95,10.38-96.87,70.15-97.31,70.72c-5.48,7.1-13.37,25.64-13.37,25.64
	s-3.69-22.65-3.57-30.61c0.33-21.94,7.65-55.84,29.12-85.17C51.43,36.41,84.68,7.62,142.75,7.62c43.43,0,81.82,17.82,108.4,52.3
	c19.83,25.72,25.43,51.68,25.72,52.76l-17.81,6.09c-0.06-0.23-6.49-24.88-24.26-47.71c-23.26-29.88-54.23-45.03-92.05-45.03
	c-40.42,0-72.09,15.28-94.14,45.41c-9.91,13.54-16.46,28.35-20.45,41.98c18.93-19.97,49.19-44.68,87.49-51.54
	c34.62-6.2,69.08,3.38,102.41,28.47l18.39,13.85l-22.87,2.65c-25.56,2.98-69.65,14.46-79.16,32.59c-1.8,3.43-3.62,9.09,1.39,18.5
	c12.56,23.6,40.21,15.62,125.71-13.18l19.32-6.5c0,0,0.22,8.23,0.01,13.05c-0.06,1.35,0.08,30.87-18.45,65.89
	c-16.12,30.47-50.19,66.62-119.54,66.66C142.65,283.85,142.25,283.86,141.7,283.86z"/>
</svg>
