<?xml version="1.0" encoding="utf-8"?>
<!-- Generator: Adobe Illustrator 24.0.0, SVG Export Plug-In . SVG Version: 6.00 Build 0)  -->
<svg version="1.1" id="Layer_1" xmlns="http://www.w3.org/2000/svg" xmlns:xlink="http://www.w3.org/1999/xlink" x="0px" y="0px"
	 viewBox="0 0 288 288" style="enable-background:new 0 0 288 288;" xml:space="preserve">
<style type="text/css">
	.st0{fill:#FFFFFF;}
</style>
<path class="st0" d="M142.86,288.07c-5.74,0-27.8-0.72-53.26-10.8c-26.94-10.67-57.68-31.95-78.08-77.07l11.8-20.41
	c13.99,39.27,39.51,66.23,73.34,79.63c25.36,10.05,46.76,9.46,46.96,9.45l0.32-0.01c50.25,0,86.45-19.79,107.58-58.81
	c9.37-17.3,13.68-34.84,15.65-46.6c-40.59,13.66-70.37,23.44-92.67,26.14c-35.41,4.29-48.2-11.56-54.75-23.85
	c-8.76-16.46-5.65-29.34-1.5-37.25c7.9-15.05,27.01-27.07,56.81-35.73c5.61-1.63,11.06-2.98,16.05-4.09
	c-23.91-13.09-48.07-17.55-72.05-13.25c-60.45,10.82-101.05,73.17-101.5,73.76c-5.71,7.41-13.95,26.74-13.95,26.74
	s-3.85-23.63-3.73-31.93c0.34-22.88,7.98-58.24,30.37-88.84C48.7,29.96,83.39-0.07,143.96-0.07c45.3,0,85.34,18.59,113.07,54.55
	c20.69,26.83,26.52,53.91,26.82,55.03l-18.57,6.36c-0.07-0.24-6.77-25.96-25.3-49.77c-24.26-31.17-56.57-46.97-96.02-46.97
	c-42.16,0-75.2,15.93-98.2,47.36c-10.34,14.13-17.17,29.57-21.33,43.79c19.75-20.83,51.31-46.6,91.26-53.76
	c36.11-6.47,72.05,3.53,106.82,29.7l19.19,14.44l-23.86,2.76c-26.66,3.11-72.66,15.08-82.57,33.99c-1.88,3.58-3.77,9.48,1.45,19.3
	c13.1,24.62,41.94,16.29,131.13-13.75l20.15-6.78c0,0,0.23,8.58,0.01,13.61c-0.06,1.41,0.08,32.2-19.24,68.73
	c-16.81,31.78-52.35,69.49-124.69,69.53C143.85,288.06,143.44,288.07,142.86,288.07z"/>
</svg>
