<?xml version="1.0" encoding="utf-8"?>
<!-- Generator: Adobe Illustrator 24.0.0, SVG Export Plug-In . SVG Version: 6.00 Build 0)  -->
<svg version="1.1" id="Layer_1" xmlns="http://www.w3.org/2000/svg" xmlns:xlink="http://www.w3.org/1999/xlink" x="0px" y="0px"
	 viewBox="0 0 1399.97 663.18" style="enable-background:new 0 0 1399.97 663.18;" xml:space="preserve">
<style type="text/css">
	.st0{fill:#FFFFFF;}
</style>
<g>
	<polygon class="st0" points="79.46,0 0,79.46 0,190.04 190.04,0 	"/>
	<polygon class="st0" points="360.95,0 0,360.95 0,471.54 471.54,0 	"/>
	<polygon class="st0" points="753.03,0 642.45,0 0,642.45 0,663.18 89.85,663.18 	"/>
	<polygon class="st0" points="1034.52,0 923.94,0 260.76,663.18 371.34,663.18 	"/>
	<polygon class="st0" points="1316.02,0 1205.44,0 542.25,663.18 652.84,663.18 	"/>
	<polygon class="st0" points="1399.97,197.55 1399.97,86.97 823.75,663.18 934.33,663.18 	"/>
	<polygon class="st0" points="1399.97,479.04 1399.97,368.46 1105.24,663.18 1215.82,663.18 	"/>
	<polygon class="st0" points="1399.97,649.95 1386.74,663.18 1399.97,663.18 	"/>
</g>
</svg>
